<svg width="231" height="95" viewBox="0 0 231 95" fill="none" xmlns="http://www.w3.org/2000/svg">
<path d="M155.481 80.5308H162.313C164.334 80.5308 165.533 80.8951 166.349 81.7767C167.336 82.8288 167.659 84.0747 167.659 86.7606C167.659 90.4985 167.53 91.6799 166.996 92.6908C166.461 93.7663 165.662 94.3658 164.44 94.6479C163.841 94.7772 163.107 94.8653 162.572 94.8653H155.487V80.5308H155.481ZM161.926 92.9729C163.365 92.9729 164.287 92.6966 164.74 92.0913C165.298 91.3625 165.451 90.4339 165.451 87.8126C165.451 84.8681 165.321 84.0512 164.787 83.3225C164.334 82.6995 163.582 82.4409 162.167 82.4409H157.678V92.967H161.932L161.926 92.9729Z" fill="white"/>
<path d="M172.875 94.8646H170.684V80.53H172.875V94.8646Z" fill="white"/>
<path d="M188.063 87.4947C188.105 88.1823 188.105 88.3763 188.105 89.2344C188.105 91.8321 188.016 92.5197 187.57 93.319C187.182 94.0067 186.583 94.4768 185.725 94.7178C185.103 94.9118 183.898 94.9999 181.989 94.9999C179.968 94.9999 179.134 94.8941 178.276 94.5474C177.16 94.0948 176.555 93.4072 176.191 92.1612C175.979 91.4736 175.914 90.6978 175.914 89.0698C175.914 85.0498 175.938 84.6854 176.173 83.5687C176.52 81.9995 177.377 81.0532 178.793 80.6653C179.439 80.4714 180.315 80.4067 182.124 80.4067C185.197 80.4067 185.819 80.4949 186.806 81.0944C187.341 81.4411 187.77 82.0818 187.922 82.7929C188.028 83.3512 188.075 83.7568 188.075 84.7676H185.884C185.819 82.4461 185.543 82.2757 181.93 82.2757C179.674 82.2757 178.881 82.5108 178.493 83.3512C178.194 84.0154 178.129 84.8147 178.129 87.6475C178.129 90.6978 178.194 91.4089 178.493 92.0554C178.881 92.8959 179.715 93.131 182.294 93.131C184.016 93.131 184.785 93.0252 185.261 92.6784C185.713 92.3787 185.925 91.4501 185.925 89.9043C185.925 89.7986 185.925 89.5165 185.902 89.2167H181.842V87.4947H188.069H188.063Z" fill="white"/>
<path d="M193.169 94.8646H190.978V80.53H193.169V94.8646Z" fill="white"/>
<path d="M202.145 94.8644H199.954V82.5104H195.571V80.5356H206.592V82.5339L202.145 82.5104V94.8644Z" fill="white"/>
<path d="M209.528 91.9848L208.541 94.8646H206.221L211.226 80.53H214.428L219.498 94.8646H217.219L216.208 91.9848H209.528ZM212.859 82.2521L210.087 90.3097H215.673L212.859 82.2521Z" fill="white"/>
<path d="M223.902 92.884H230.928V94.8588H221.716V80.5242H223.907V92.8781L223.902 92.884Z" fill="white"/>
<path d="M37.7864 31.5784C46.4928 33.2064 48.7839 36.2685 48.7839 46.4126C48.7839 61.4348 44.1899 64.9788 24.7738 64.9788C5.35776 64.9788 0 61.6288 0 46.6065C0 36.3684 2.48501 33.0184 11.0974 31.4844V31.2904C7.17306 30.3324 5.55164 29.7565 4.11233 28.4165C1.91517 26.5005 0.857708 22.5804 0.857708 16.8383C0.857708 10.4262 2.19715 6.11822 4.87604 3.82609C8.31864 0.858083 12.7188 0 24.2921 0C35.8653 0 40.4594 0.764043 43.808 3.63802C46.5809 6.12409 48.0202 10.5261 48.0202 17.0381C48.0202 26.4182 45.8172 29.4802 37.7864 31.3903V31.5843V31.5784ZM11.0034 38.3725C9.85782 39.9065 9.56995 41.4346 9.56995 45.6485C9.56995 55.8867 10.6215 56.6566 24.8737 56.6566C37.4045 56.6566 39.2198 55.2226 39.2198 45.5545C39.2198 36.8444 37.4045 35.6044 24.0101 35.6044C15.4976 35.6044 12.6248 36.1803 10.9975 38.3784L11.0034 38.3725ZM10.4277 17.7023C10.4277 22.1983 10.9035 24.3083 12.4368 25.7423C14.0641 27.2704 16.743 27.6583 25.8313 27.6583C36.7348 27.6583 38.4561 26.3183 38.4561 17.7081C38.4561 9.09798 37.1167 8.13999 24.4918 8.13999C11.867 8.13999 10.4277 8.90403 10.4277 17.7081V17.7023Z" fill="white"/>
<path d="M97.704 31.5784C106.41 33.2064 108.702 36.2685 108.702 46.4126C108.702 61.4348 104.107 64.9788 84.6914 64.9788C65.2754 64.9788 59.9176 61.6288 59.9176 46.6065C59.9176 36.3684 62.4026 33.0184 71.015 31.4844V31.2904C67.0907 30.3324 65.4692 29.7565 64.0299 28.4165C61.8328 26.5005 60.7753 22.5804 60.7753 16.8383C60.7753 10.4262 62.1148 6.11822 64.7936 3.82609C68.2362 0.858083 72.6364 0 84.2097 0C95.783 0 100.377 0.764043 103.726 3.63802C106.499 6.12409 107.938 10.5261 107.938 17.0381C107.938 26.4182 105.735 29.4802 97.704 31.3903V31.5843V31.5784ZM70.921 38.3725C69.7754 39.9065 69.4876 41.4346 69.4876 45.6485C69.4876 55.8867 70.5391 56.6566 84.7913 56.6566C97.3221 56.6566 99.1374 55.2226 99.1374 45.5545C99.1374 36.8444 97.3221 35.6044 83.9277 35.6044C75.4152 35.6044 72.5424 36.1803 70.921 38.3784V38.3725ZM70.3453 17.7023C70.3453 22.1983 70.8211 24.3083 72.3544 25.7423C73.9817 27.2704 76.6606 27.6583 85.7489 27.6583C96.6524 27.6583 98.3737 26.3183 98.3737 17.7081C98.3737 9.09798 97.0343 8.13999 84.4094 8.13999C71.7846 8.13999 70.3453 8.90403 70.3453 17.7081V17.7023Z" fill="white"/>
<path d="M220.002 31.5784C228.709 33.2064 231 36.2685 231 46.4126C231 61.4348 226.406 64.9788 206.99 64.9788C187.574 64.9788 182.216 61.6288 182.216 46.6065C182.216 36.3684 184.701 33.0184 193.313 31.4844V31.2904C189.389 30.3324 187.768 29.7565 186.328 28.4165C184.131 26.5005 183.074 22.5804 183.074 16.8383C183.074 10.4262 184.413 6.11822 187.092 3.82609C190.535 0.858083 194.935 0 206.508 0C218.081 0 222.675 0.764043 226.024 3.63802C228.797 6.12409 230.236 10.5261 230.236 17.0381C230.236 26.4182 228.033 29.4802 220.002 31.3903V31.5843V31.5784ZM193.219 38.3725C192.074 39.9065 191.786 41.4346 191.786 45.6485C191.786 55.8867 192.838 56.6566 207.09 56.6566C219.621 56.6566 221.436 55.2226 221.436 45.5545C221.436 36.8444 219.621 35.6044 206.226 35.6044C197.714 35.6044 194.841 36.1803 193.219 38.3784V38.3725ZM192.644 17.7023C192.644 22.1983 193.12 24.3083 194.653 25.7423C196.28 27.2704 198.959 27.6583 208.047 27.6583C218.951 27.6583 220.672 26.3183 220.672 17.7081C220.672 9.09798 219.333 8.13999 206.708 8.13999C194.083 8.13999 192.644 8.90403 192.644 17.7081V17.7023Z" fill="white"/>
<path d="M162.808 0.56958H154.648C154.187 0.56958 153.813 0.943219 153.813 1.40414V9.12096C153.813 9.58188 154.187 9.95554 154.648 9.95554H162.808C163.268 9.95554 163.642 9.58188 163.642 9.12096V1.40414C163.642 0.943219 163.268 0.56958 162.808 0.56958Z" fill="#20D296"/>
<path d="M151.25 12.1187V21.0228C151.25 21.4812 150.874 21.8514 150.416 21.8514H142.25C141.792 21.8514 141.416 21.4812 141.416 21.0228V12.1187C141.416 11.6603 141.792 11.29 142.25 11.29H150.416C150.874 11.29 151.25 11.6603 151.25 12.1187Z" fill="#5CBAAD"/>
<path d="M139.085 24.1554V35.6218C139.085 36.0803 138.715 36.4506 138.251 36.4506H130.085C129.626 36.4506 129.256 36.0803 129.256 35.6218V24.1554C129.256 23.6969 129.626 23.3267 130.085 23.3267H138.251C138.715 23.3267 139.085 23.6969 139.085 24.1554Z" fill="#40827B"/>
<path d="M171.154 47.7062H163.663V24.1561C163.663 23.6977 163.293 23.3215 162.829 23.3215H154.64C154.181 23.3215 153.806 23.6918 153.806 24.1561V47.7062H130.63C129.513 47.6533 128.626 46.7423 128.626 45.6139V40.0834C128.626 39.625 128.256 39.2488 127.792 39.2488H119.626C119.168 39.2488 118.792 39.6191 118.792 40.0834V49.6222C118.792 52.8958 121.441 55.5465 124.714 55.5465H153.8V63.563C153.8 64.0215 154.17 64.3976 154.634 64.3976H162.823C163.281 64.3976 163.657 64.0273 163.657 63.563V55.5465H171.148C171.606 55.5465 171.982 55.1762 171.982 54.7119V48.529C171.982 48.0706 171.612 47.6945 171.148 47.6945L171.154 47.7062Z" fill="white"/>
</svg>
